<svg width="166" height="166" viewBox="0 0 166 166" fill="none" xmlns="http://www.w3.org/2000/svg">
<g opacity="0.3">
<path fill-rule="evenodd" clip-rule="evenodd" d="M164.197 166C163.718 166 163.259 165.81 162.921 165.471C162.583 165.133 162.393 164.674 162.393 164.195C162.393 163.717 162.583 163.258 162.921 162.92C163.259 162.581 163.718 162.391 164.197 162.391C164.676 162.391 165.135 162.581 165.473 162.92C165.811 163.258 166.002 163.717 166.002 164.195C166.002 164.674 165.811 165.133 165.473 165.471C165.135 165.81 164.676 166 164.197 166ZM146.153 147.957C145.674 147.957 145.215 147.767 144.877 147.428C144.538 147.09 144.348 146.631 144.348 146.152C144.348 145.673 144.538 145.214 144.877 144.876C145.215 144.537 145.674 144.347 146.153 144.347C146.632 144.347 147.091 144.537 147.429 144.876C147.768 145.214 147.958 145.673 147.958 146.152C147.958 146.631 147.768 147.09 147.429 147.428C147.091 147.767 146.632 147.957 146.153 147.957ZM146.153 166C145.674 166 145.215 165.81 144.877 165.471C144.539 165.133 144.349 164.674 144.349 164.195C144.349 163.717 144.539 163.258 144.877 162.92C145.215 162.581 145.674 162.391 146.153 162.391C146.632 162.391 147.091 162.581 147.429 162.92C147.767 163.258 147.958 163.717 147.958 164.195C147.958 164.674 147.767 165.133 147.429 165.471C147.091 165.81 146.632 166 146.153 166ZM128.11 166C127.631 166 127.172 165.81 126.834 165.471C126.496 165.133 126.305 164.674 126.305 164.195C126.305 163.717 126.496 163.258 126.834 162.92C127.172 162.581 127.631 162.391 128.11 162.391C128.589 162.391 129.048 162.581 129.386 162.92C129.724 163.258 129.915 163.717 129.915 164.195C129.915 164.674 129.724 165.133 129.386 165.471C129.048 165.81 128.589 166 128.11 166ZM128.11 147.957C127.631 147.957 127.172 147.767 126.834 147.428C126.495 147.09 126.305 146.631 126.305 146.152C126.305 145.673 126.495 145.214 126.834 144.876C127.172 144.537 127.631 144.347 128.11 144.347C128.589 144.347 129.048 144.537 129.386 144.876C129.725 145.214 129.915 145.673 129.915 146.152C129.915 146.631 129.725 147.09 129.386 147.428C129.048 147.767 128.589 147.957 128.11 147.957ZM128.11 129.913C127.631 129.913 127.172 129.723 126.834 129.384C126.496 129.046 126.305 128.587 126.305 128.109C126.305 127.63 126.496 127.171 126.834 126.833C127.172 126.494 127.631 126.304 128.11 126.304C128.589 126.304 129.048 126.494 129.386 126.833C129.724 127.171 129.915 127.63 129.915 128.109C129.915 128.587 129.724 129.046 129.386 129.384C129.048 129.723 128.589 129.913 128.11 129.913ZM110.066 129.913C109.587 129.913 109.128 129.723 108.79 129.384C108.452 129.046 108.261 128.587 108.261 128.109C108.261 127.63 108.452 127.171 108.79 126.833C109.128 126.494 109.587 126.304 110.066 126.304C110.545 126.304 111.004 126.494 111.342 126.833C111.68 127.171 111.87 127.63 111.87 128.109C111.87 128.587 111.68 129.046 111.342 129.384C111.004 129.723 110.545 129.913 110.066 129.913ZM110.066 147.957C109.587 147.957 109.128 147.767 108.79 147.428C108.451 147.09 108.261 146.631 108.261 146.152C108.261 145.673 108.451 145.214 108.79 144.876C109.128 144.537 109.587 144.347 110.066 144.347C110.545 144.347 111.004 144.537 111.342 144.876C111.681 145.214 111.871 145.673 111.871 146.152C111.871 146.631 111.681 147.09 111.342 147.428C111.004 147.767 110.545 147.957 110.066 147.957ZM110.066 166C109.587 166 109.128 165.81 108.79 165.471C108.452 165.133 108.261 164.674 108.261 164.195C108.261 163.717 108.452 163.258 108.79 162.92C109.128 162.581 109.587 162.391 110.066 162.391C110.545 162.391 111.004 162.581 111.342 162.92C111.68 163.258 111.87 163.717 111.87 164.195C111.87 164.674 111.68 165.133 111.342 165.471C111.004 165.81 110.545 166 110.066 166ZM110.066 111.87C109.587 111.87 109.128 111.68 108.79 111.341C108.451 111.003 108.261 110.544 108.261 110.065C108.261 109.586 108.451 109.127 108.79 108.789C109.128 108.45 109.587 108.26 110.066 108.26C110.545 108.26 111.004 108.45 111.342 108.789C111.681 109.127 111.871 109.586 111.871 110.065C111.871 110.544 111.681 111.003 111.342 111.341C111.004 111.68 110.545 111.87 110.066 111.87ZM92.023 129.913C91.5444 129.913 91.0854 129.723 90.747 129.384C90.4086 129.046 90.2185 128.587 90.2185 128.109C90.2185 127.63 90.4086 127.171 90.747 126.833C91.0854 126.494 91.5444 126.304 92.023 126.304C92.5016 126.304 92.9606 126.494 93.299 126.833C93.6374 127.171 93.8275 127.63 93.8275 128.109C93.8275 128.587 93.6374 129.046 93.299 129.384C92.9606 129.723 92.5016 129.913 92.023 129.913ZM92.023 147.957C91.5443 147.957 91.0852 147.767 90.7467 147.428C90.4082 147.09 90.218 146.631 90.218 146.152C90.218 145.673 90.4082 145.214 90.7467 144.876C91.0852 144.537 91.5443 144.347 92.023 144.347C92.5017 144.347 92.9608 144.537 93.2993 144.876C93.6378 145.214 93.828 145.673 93.828 146.152C93.828 146.631 93.6378 147.09 93.2993 147.428C92.9608 147.767 92.5017 147.957 92.023 147.957ZM92.023 166C91.5444 166 91.0854 165.81 90.747 165.471C90.4086 165.133 90.2185 164.674 90.2185 164.195C90.2185 163.717 90.4086 163.258 90.747 162.92C91.0854 162.581 91.5444 162.391 92.023 162.391C92.5016 162.391 92.9606 162.581 93.299 162.92C93.6374 163.258 93.8275 163.717 93.8275 164.195C93.8275 164.674 93.6374 165.133 93.299 165.471C92.9606 165.81 92.5016 166 92.023 166ZM92.023 111.87C91.5443 111.87 91.0852 111.68 90.7467 111.341C90.4082 111.003 90.218 110.544 90.218 110.065C90.218 109.586 90.4082 109.127 90.7467 108.789C91.0852 108.45 91.5443 108.26 92.023 108.26C92.5017 108.26 92.9608 108.45 93.2993 108.789C93.6378 109.127 93.828 109.586 93.828 110.065C93.828 110.544 93.6378 111.003 93.2993 111.341C92.9608 111.68 92.5017 111.87 92.023 111.87ZM92.023 93.826C91.5444 93.826 91.0854 93.6359 90.747 93.2975C90.4086 92.9591 90.2185 92.5001 90.2185 92.0215C90.2185 91.5429 90.4086 91.0839 90.747 90.7455C91.0854 90.4071 91.5444 90.217 92.023 90.217C92.5017 90.217 92.9608 90.4072 93.2993 90.7457C93.6378 91.0842 93.828 91.5433 93.828 92.022C93.828 92.5007 93.6378 92.9598 93.2993 93.2983C92.9608 93.6368 92.5017 93.827 92.023 93.827V93.826ZM73.979 129.913C73.5004 129.913 73.0414 129.723 72.703 129.384C72.3646 129.046 72.1745 128.587 72.1745 128.109C72.1745 127.63 72.3646 127.171 72.703 126.833C73.0414 126.494 73.5004 126.304 73.979 126.304C74.4576 126.304 74.9166 126.494 75.255 126.833C75.5934 127.171 75.7835 127.63 75.7835 128.109C75.7835 128.587 75.5934 129.046 75.255 129.384C74.9166 129.723 74.4576 129.913 73.979 129.913ZM73.979 147.957C73.5003 147.957 73.0412 147.767 72.7027 147.428C72.3642 147.09 72.174 146.631 72.174 146.152C72.174 145.673 72.3642 145.214 72.7027 144.876C73.0412 144.537 73.5003 144.347 73.979 144.347C74.4577 144.347 74.9168 144.537 75.2553 144.876C75.5938 145.214 75.784 145.673 75.784 146.152C75.784 146.631 75.5938 147.09 75.2553 147.428C74.9168 147.767 74.4577 147.957 73.979 147.957ZM73.979 166C73.5004 166 73.0414 165.81 72.703 165.471C72.3646 165.133 72.1745 164.674 72.1745 164.195C72.1745 163.717 72.3646 163.258 72.703 162.92C73.0414 162.581 73.5004 162.391 73.979 162.391C74.4576 162.391 74.9166 162.581 75.255 162.92C75.5934 163.258 75.7835 163.717 75.7835 164.195C75.7835 164.674 75.5934 165.133 75.255 165.471C74.9166 165.81 74.4576 166 73.979 166ZM73.979 111.87C73.5003 111.87 73.0412 111.68 72.7027 111.341C72.3642 111.003 72.174 110.544 72.174 110.065C72.174 109.586 72.3642 109.127 72.7027 108.789C73.0412 108.45 73.5003 108.26 73.979 108.26C74.4577 108.26 74.9168 108.45 75.2553 108.789C75.5938 109.127 75.784 109.586 75.784 110.065C75.784 110.544 75.5938 111.003 75.2553 111.341C74.9168 111.68 74.4577 111.87 73.979 111.87ZM73.979 93.826C73.5004 93.826 73.0414 93.6359 72.703 93.2975C72.3646 92.9591 72.1745 92.5001 72.1745 92.0215C72.1745 91.5429 72.3646 91.0839 72.703 90.7455C73.0414 90.4071 73.5004 90.217 73.979 90.217C74.4577 90.217 74.9168 90.4072 75.2553 90.7457C75.5938 91.0842 75.784 91.5433 75.784 92.022C75.784 92.5007 75.5938 92.9598 75.2553 93.2983C74.9168 93.6368 74.4577 93.827 73.979 93.827V93.826ZM73.979 75.783C73.5003 75.783 73.0412 75.5928 72.7027 75.2543C72.3642 74.9158 72.174 74.4567 72.174 73.978C72.174 73.4993 72.3642 73.0402 72.7027 72.7017C73.0412 72.3632 73.5003 72.173 73.979 72.173C74.4577 72.173 74.9168 72.3632 75.2553 72.7017C75.5938 73.0402 75.784 73.4993 75.784 73.978C75.784 74.4567 75.5938 74.9158 75.2553 75.2543C74.9168 75.5928 74.4577 75.783 73.979 75.783ZM55.936 129.913C55.4574 129.913 54.9984 129.723 54.66 129.384C54.3216 129.046 54.1315 128.587 54.1315 128.109C54.1315 127.63 54.3216 127.171 54.66 126.833C54.9984 126.494 55.4574 126.304 55.936 126.304C56.4146 126.304 56.8736 126.494 57.212 126.833C57.5504 127.171 57.7405 127.63 57.7405 128.109C57.7405 128.587 57.5504 129.046 57.212 129.384C56.8736 129.723 56.4146 129.913 55.936 129.913ZM55.936 147.957C55.4573 147.957 54.9982 147.767 54.6597 147.428C54.3212 147.09 54.131 146.631 54.131 146.152C54.131 145.673 54.3212 145.214 54.6597 144.876C54.9982 144.537 55.4573 144.347 55.936 144.347C56.4147 144.347 56.8738 144.537 57.2123 144.876C57.5508 145.214 57.741 145.673 57.741 146.152C57.741 146.631 57.5508 147.09 57.2123 147.428C56.8738 147.767 56.4147 147.957 55.936 147.957ZM55.936 166C55.4574 166 54.9984 165.81 54.66 165.471C54.3216 165.133 54.1315 164.674 54.1315 164.195C54.1315 163.717 54.3216 163.258 54.66 162.92C54.9984 162.581 55.4574 162.391 55.936 162.391C56.4146 162.391 56.8736 162.581 57.212 162.92C57.5504 163.258 57.7405 163.717 57.7405 164.195C57.7405 164.674 57.5504 165.133 57.212 165.471C56.8736 165.81 56.4146 166 55.936 166ZM55.936 111.87C55.4573 111.87 54.9982 111.68 54.6597 111.341C54.3212 111.003 54.131 110.544 54.131 110.065C54.131 109.586 54.3212 109.127 54.6597 108.789C54.9982 108.45 55.4573 108.26 55.936 108.26C56.4147 108.26 56.8738 108.45 57.2123 108.789C57.5508 109.127 57.741 109.586 57.741 110.065C57.741 110.544 57.5508 111.003 57.2123 111.341C56.8738 111.68 56.4147 111.87 55.936 111.87ZM55.936 93.826C55.4574 93.826 54.9984 93.6359 54.66 93.2975C54.3216 92.9591 54.1315 92.5001 54.1315 92.0215C54.1315 91.5429 54.3216 91.0839 54.66 90.7455C54.9984 90.4071 55.4574 90.217 55.936 90.217C56.4147 90.217 56.8738 90.4072 57.2123 90.7457C57.5508 91.0842 57.741 91.5433 57.741 92.022C57.741 92.5007 57.5508 92.9598 57.2123 93.2983C56.8738 93.6368 56.4147 93.827 55.936 93.827V93.826ZM55.936 75.783C55.4573 75.783 54.9982 75.5928 54.6597 75.2543C54.3212 74.9158 54.131 74.4567 54.131 73.978C54.131 73.4993 54.3212 73.0402 54.6597 72.7017C54.9982 72.3632 55.4573 72.173 55.936 72.173C56.4147 72.173 56.8738 72.3632 57.2123 72.7017C57.5508 73.0402 57.741 73.4993 57.741 73.978C57.741 74.4567 57.5508 74.9158 57.2123 75.2543C56.8738 75.5928 56.4147 75.783 55.936 75.783ZM55.936 57.739C55.4574 57.739 54.9984 57.5489 54.66 57.2105C54.3216 56.8721 54.1315 56.4131 54.1315 55.9345C54.1315 55.4559 54.3216 54.9969 54.66 54.6585C54.9984 54.3201 55.4574 54.13 55.936 54.13C56.4147 54.13 56.8738 54.3202 57.2123 54.6587C57.5508 54.9972 57.741 55.4563 57.741 55.935C57.741 56.4137 57.5508 56.8728 57.2123 57.2113C56.8738 57.5498 56.4147 57.74 55.936 57.74V57.739ZM37.891 129.913C37.4124 129.913 36.9534 129.723 36.615 129.384C36.2766 129.046 36.0865 128.587 36.0865 128.109C36.0865 127.63 36.2766 127.171 36.615 126.833C36.9534 126.494 37.4124 126.304 37.891 126.304C38.3696 126.304 38.8286 126.494 39.167 126.833C39.5054 127.171 39.6955 127.63 39.6955 128.109C39.6955 128.587 39.5054 129.046 39.167 129.384C38.8286 129.723 38.3696 129.913 37.891 129.913ZM37.891 147.957C37.4123 147.957 36.9532 147.767 36.6147 147.428C36.2762 147.09 36.086 146.631 36.086 146.152C36.086 145.673 36.2762 145.214 36.6147 144.876C36.9532 144.537 37.4123 144.347 37.891 144.347C38.3697 144.347 38.8288 144.537 39.1673 144.876C39.5058 145.214 39.696 145.673 39.696 146.152C39.696 146.631 39.5058 147.09 39.1673 147.428C38.8288 147.767 38.3697 147.957 37.891 147.957ZM37.891 166C37.4124 166 36.9534 165.81 36.615 165.471C36.2766 165.133 36.0865 164.674 36.0865 164.195C36.0865 163.717 36.2766 163.258 36.615 162.92C36.9534 162.581 37.4124 162.391 37.891 162.391C38.3696 162.391 38.8286 162.581 39.167 162.92C39.5054 163.258 39.6955 163.717 39.6955 164.195C39.6955 164.674 39.5054 165.133 39.167 165.471C38.8286 165.81 38.3696 166 37.891 166ZM37.891 111.87C37.4123 111.87 36.9532 111.68 36.6147 111.341C36.2762 111.003 36.086 110.544 36.086 110.065C36.086 109.586 36.2762 109.127 36.6147 108.789C36.9532 108.45 37.4123 108.26 37.891 108.26C38.3697 108.26 38.8288 108.45 39.1673 108.789C39.5058 109.127 39.696 109.586 39.696 110.065C39.696 110.544 39.5058 111.003 39.1673 111.341C38.8288 111.68 38.3697 111.87 37.891 111.87ZM37.891 93.826C37.4124 93.826 36.9534 93.6359 36.615 93.2975C36.2766 92.9591 36.0865 92.5001 36.0865 92.0215C36.0865 91.5429 36.2766 91.0839 36.615 90.7455C36.9534 90.4071 37.4124 90.217 37.891 90.217C38.3697 90.217 38.8288 90.4072 39.1673 90.7457C39.5058 91.0842 39.696 91.5433 39.696 92.022C39.696 92.5007 39.5058 92.9598 39.1673 93.2983C38.8288 93.6368 38.3697 93.827 37.891 93.827V93.826ZM37.891 75.783C37.4123 75.783 36.9532 75.5928 36.6147 75.2543C36.2762 74.9158 36.086 74.4567 36.086 73.978C36.086 73.4993 36.2762 73.0402 36.6147 72.7017C36.9532 72.3632 37.4123 72.173 37.891 72.173C38.3697 72.173 38.8288 72.3632 39.1673 72.7017C39.5058 73.0402 39.696 73.4993 39.696 73.978C39.696 74.4567 39.5058 74.9158 39.1673 75.2543C38.8288 75.5928 38.3697 75.783 37.891 75.783ZM37.891 57.739C37.4124 57.739 36.9534 57.5489 36.615 57.2105C36.2766 56.8721 36.0865 56.4131 36.0865 55.9345C36.0865 55.4559 36.2766 54.9969 36.615 54.6585C36.9534 54.3201 37.4124 54.13 37.891 54.13C38.3697 54.13 38.8288 54.3202 39.1673 54.6587C39.5058 54.9972 39.696 55.4563 39.696 55.935C39.696 56.4137 39.5058 56.8728 39.1673 57.2113C38.8288 57.5498 38.3697 57.74 37.891 57.74V57.739ZM37.891 39.696C37.4124 39.696 36.9534 39.5059 36.615 39.1675C36.2766 38.8291 36.0865 38.3701 36.0865 37.8915C36.0865 37.4129 36.2766 36.9539 36.615 36.6155C36.9534 36.2771 37.4124 36.087 37.891 36.087C38.3696 36.087 38.8286 36.2771 39.167 36.6155C39.5054 36.9539 39.6955 37.4129 39.6955 37.8915C39.6955 38.3701 39.5054 38.8291 39.167 39.1675C38.8286 39.5059 38.3696 39.696 37.891 39.696ZM19.848 129.913C19.3694 129.913 18.9104 129.723 18.572 129.384C18.2336 129.046 18.0435 128.587 18.0435 128.109C18.0435 127.63 18.2336 127.171 18.572 126.833C18.9104 126.494 19.3694 126.304 19.848 126.304C20.3266 126.304 20.7856 126.494 21.124 126.833C21.4624 127.171 21.6525 127.63 21.6525 128.109C21.6525 128.587 21.4624 129.046 21.124 129.384C20.7856 129.723 20.3266 129.913 19.848 129.913ZM19.848 147.957C19.3693 147.957 18.9102 147.767 18.5717 147.428C18.2332 147.09 18.043 146.631 18.043 146.152C18.043 145.673 18.2332 145.214 18.5717 144.876C18.9102 144.537 19.3693 144.347 19.848 144.347C20.3267 144.347 20.7858 144.537 21.1243 144.876C21.4628 145.214 21.653 145.673 21.653 146.152C21.653 146.631 21.4628 147.09 21.1243 147.428C20.7858 147.767 20.3267 147.957 19.848 147.957ZM19.848 166C19.3694 166 18.9104 165.81 18.572 165.471C18.2336 165.133 18.0435 164.674 18.0435 164.195C18.0435 163.717 18.2336 163.258 18.572 162.92C18.9104 162.581 19.3694 162.391 19.848 162.391C20.3266 162.391 20.7856 162.581 21.124 162.92C21.4624 163.258 21.6525 163.717 21.6525 164.195C21.6525 164.674 21.4624 165.133 21.124 165.471C20.7856 165.81 20.3266 166 19.848 166ZM19.848 111.87C19.3693 111.87 18.9102 111.68 18.5717 111.341C18.2332 111.003 18.043 110.544 18.043 110.065C18.043 109.586 18.2332 109.127 18.5717 108.789C18.9102 108.45 19.3693 108.26 19.848 108.26C20.3267 108.26 20.7858 108.45 21.1243 108.789C21.4628 109.127 21.653 109.586 21.653 110.065C21.653 110.544 21.4628 111.003 21.1243 111.341C20.7858 111.68 20.3267 111.87 19.848 111.87ZM19.848 93.826C19.3694 93.826 18.9104 93.6359 18.572 93.2975C18.2336 92.9591 18.0435 92.5001 18.0435 92.0215C18.0435 91.5429 18.2336 91.0839 18.572 90.7455C18.9104 90.4071 19.3694 90.217 19.848 90.217C20.3267 90.217 20.7858 90.4072 21.1243 90.7457C21.4628 91.0842 21.653 91.5433 21.653 92.022C21.653 92.5007 21.4628 92.9598 21.1243 93.2983C20.7858 93.6368 20.3267 93.827 19.848 93.827V93.826ZM19.848 75.783C19.3693 75.783 18.9102 75.5928 18.5717 75.2543C18.2332 74.9158 18.043 74.4567 18.043 73.978C18.043 73.4993 18.2332 73.0402 18.5717 72.7017C18.9102 72.3632 19.3693 72.173 19.848 72.173C20.3267 72.173 20.7858 72.3632 21.1243 72.7017C21.4628 73.0402 21.653 73.4993 21.653 73.978C21.653 74.4567 21.4628 74.9158 21.1243 75.2543C20.7858 75.5928 20.3267 75.783 19.848 75.783ZM19.848 57.739C19.3694 57.739 18.9104 57.5489 18.572 57.2105C18.2336 56.8721 18.0435 56.4131 18.0435 55.9345C18.0435 55.4559 18.2336 54.9969 18.572 54.6585C18.9104 54.3201 19.3694 54.13 19.848 54.13C20.3267 54.13 20.7858 54.3202 21.1243 54.6587C21.4628 54.9972 21.653 55.4563 21.653 55.935C21.653 56.4137 21.4628 56.8728 21.1243 57.2113C20.7858 57.5498 20.3267 57.74 19.848 57.74V57.739ZM19.848 39.696C19.3694 39.696 18.9104 39.5059 18.572 39.1675C18.2336 38.8291 18.0435 38.3701 18.0435 37.8915C18.0435 37.4129 18.2336 36.9539 18.572 36.6155C18.9104 36.2771 19.3694 36.087 19.848 36.087C20.3266 36.087 20.7856 36.2771 21.124 36.6155C21.4624 36.9539 21.6525 37.4129 21.6525 37.8915C21.6525 38.3701 21.4624 38.8291 21.124 39.1675C20.7856 39.5059 20.3266 39.696 19.848 39.696ZM19.848 21.652C19.3694 21.652 18.9104 21.4619 18.572 21.1235C18.2336 20.7851 18.0435 20.3261 18.0435 19.8475C18.0435 19.3689 18.2336 18.9099 18.572 18.5715C18.9104 18.2331 19.3694 18.043 19.848 18.043C20.3267 18.043 20.7858 18.2332 21.1243 18.5717C21.4628 18.9102 21.653 19.3693 21.653 19.848C21.653 20.3267 21.4628 20.7858 21.1243 21.1243C20.7858 21.4628 20.3267 21.652 19.848 21.652ZM1.805 129.913C1.32642 129.913 0.867435 129.723 0.529026 129.384C0.190616 129.046 0.0005 128.587 0.0005 128.109C0.0005 127.63 0.190616 127.171 0.529026 126.833C0.867435 126.494 1.32642 126.304 1.805 126.304C2.28358 126.304 2.74256 126.494 3.08097 126.833C3.41938 127.171 3.6095 127.63 3.6095 128.109C3.6095 128.587 3.41938 129.046 3.08097 129.384C2.74256 129.723 2.28358 129.913 1.805 129.913ZM1.805 147.957C1.32628 147.957 0.867175 147.767 0.528672 147.428C0.190169 147.09 0 146.631 0 146.152C0 145.673 0.190169 145.214 0.528672 144.876C0.867175 144.537 1.32628 144.347 1.805 144.347C2.28372 144.347 2.74282 144.537 3.08133 144.876C3.41983 145.214 3.61 145.673 3.61 146.152C3.61 146.631 3.41983 147.09 3.08133 147.428C2.74282 147.767 2.28372 147.957 1.805 147.957ZM1.805 166C1.32642 166 0.867435 165.81 0.529026 165.471C0.190616 165.133 0.0005 164.674 0.0005 164.195C0.0005 163.717 0.190616 163.258 0.529026 162.92C0.867435 162.581 1.32642 162.391 1.805 162.391C2.28358 162.391 2.74256 162.581 3.08097 162.92C3.41938 163.258 3.6095 163.717 3.6095 164.195C3.6095 164.674 3.41938 165.133 3.08097 165.471C2.74256 165.81 2.28358 166 1.805 166ZM1.805 111.87C1.32628 111.87 0.867175 111.68 0.528672 111.341C0.190169 111.003 0 110.544 0 110.065C0 109.586 0.190169 109.127 0.528672 108.789C0.867175 108.45 1.32628 108.26 1.805 108.26C2.28372 108.26 2.74282 108.45 3.08133 108.789C3.41983 109.127 3.61 109.586 3.61 110.065C3.61 110.544 3.41983 111.003 3.08133 111.341C2.74282 111.68 2.28372 111.87 1.805 111.87ZM1.805 93.826C1.32642 93.826 0.867435 93.6359 0.529026 93.2975C0.190616 92.9591 0.0005 92.5001 0.0005 92.0215C0.0005 91.5429 0.190616 91.0839 0.529026 90.7455C0.867435 90.4071 1.32642 90.217 1.805 90.217C2.28372 90.217 2.74282 90.4072 3.08133 90.7457C3.41983 91.0842 3.61 91.5433 3.61 92.022C3.61 92.5007 3.41983 92.9598 3.08133 93.2983C2.74282 93.6368 2.28372 93.827 1.805 93.827V93.826ZM1.805 75.783C1.32628 75.783 0.867175 75.5928 0.528672 75.2543C0.190169 74.9158 0 74.4567 0 73.978C0 73.4993 0.190169 73.0402 0.528672 72.7017C0.867175 72.3632 1.32628 72.173 1.805 72.173C2.28372 72.173 2.74282 72.3632 3.08133 72.7017C3.41983 73.0402 3.61 73.4993 3.61 73.978C3.61 74.4567 3.41983 74.9158 3.08133 75.2543C2.74282 75.5928 2.28372 75.783 1.805 75.783ZM1.805 57.739C1.32642 57.739 0.867435 57.5489 0.529026 57.2105C0.190616 56.8721 0.0005 56.4131 0.0005 55.9345C0.0005 55.4559 0.190616 54.9969 0.529026 54.6585C0.867435 54.3201 1.32642 54.13 1.805 54.13C2.28372 54.13 2.74282 54.3202 3.08133 54.6587C3.41983 54.9972 3.61 55.4563 3.61 55.935C3.61 56.4137 3.41983 56.8728 3.08133 57.2113C2.74282 57.5498 2.28372 57.74 1.805 57.74V57.739ZM1.805 39.696C1.32642 39.696 0.867435 39.5059 0.529026 39.1675C0.190616 38.8291 0.0005 38.3701 0.0005 37.8915C0.0005 37.4129 0.190616 36.9539 0.529026 36.6155C0.867435 36.2771 1.32642 36.087 1.805 36.087C2.28358 36.087 2.74256 36.2771 3.08097 36.6155C3.41938 36.9539 3.6095 37.4129 3.6095 37.8915C3.6095 38.3701 3.41938 38.8291 3.08097 39.1675C2.74256 39.5059 2.28358 39.696 1.805 39.696ZM1.805 21.652C1.32642 21.652 0.867435 21.4619 0.529026 21.1235C0.190616 20.7851 0.0005 20.3261 0.0005 19.8475C0.0005 19.3689 0.190616 18.9099 0.529026 18.5715C0.867435 18.2331 1.32642 18.043 1.805 18.043C2.28372 18.043 2.74282 18.2332 3.08133 18.5717C3.41983 18.9102 3.61 19.3693 3.61 19.848C3.61 20.3267 3.41983 20.7858 3.08133 21.1243C2.74282 21.4628 2.28372 21.652 1.805 21.652ZM1.805 3.609C1.32642 3.609 0.867435 3.41888 0.529026 3.08047C0.190616 2.74206 0.0005 2.28308 0.0005 1.8045C0.0005 1.32592 0.190616 0.866935 0.529026 0.528526C0.867435 0.190116 1.32642 0 1.805 0C2.28358 0 2.74256 0.190116 3.08097 0.528526C3.41938 0.866935 3.6095 1.32592 3.6095 1.8045C3.6095 2.28308 3.41938 2.74206 3.08097 3.08047C2.74256 3.41888 2.28358 3.609 1.805 3.609Z" fill="#FF6600"/>
</g>
</svg>
